# xmcd
#
# Track frame offsets:
# 150
# 16789
# 31323
# 43284
# 60602
# 75332
# 83119
# 95115
# 109934
# 120445
# 131755
# 145681
#
# Disc length: 2122 seconds
#
#
# Revision: 0
# Processed by: cddbd v1.5.2PL0 Copyright (c) Steve Scherf et al.
# Submitted via: FreeRIP 2.942 
#
DISCID=9708480c
DTITLE=The Martins - Cold Lonely Night
DYEAR=2008
DGENRE=Bluegrass
TTITLE0=Lonesome Whistle
TTITLE1=Another Lonesome Road
TTITLE2=Cold Lonely Night
TTITLE3=A True Love
TTITLE4=Mountain Man
TTITLE5=Tom and Jerry
TTITLE6=Papa Played the Dobro
TTITLE7=Wasting My Time
TTITLE8=Lester Shaw
TTITLE9=Knee Deep in Bluegrass
TTITLE10=You've Got a Hold on Me
TTITLE11=Train of Love
EXTD=
EXTT0=
EXTT1=
EXTT2=
EXTT3=
EXTT4=
EXTT5=
EXTT6=
EXTT7=
EXTT8=
EXTT9=
EXTT10=
EXTT11=
PLAYORDER=
